Coordinates
version=1
nRows=29
nColumns=24
inDegrees=yes

Units are S.I. units (second, meters, Newtons, ...)
Angles are in degrees.

endheader
time	pelvis_tilt	pelvis_list	pelvis_rotation	pelvis_tx	pelvis_ty	pelvis_tz	hip_flexion_r	hip_adduction_r	hip_rotation_r	knee_angle_r	ankle_angle_r	subtalar_angle_r	mtp_angle_r	hip_flexion_l	hip_adduction_l	hip_rotation_l	knee_angle_l	ankle_angle_l	subtalar_angle_l	mtp_angle_l	lumbar_extension	lumbar_bending	lumbar_rotation
      0.01000000	     52.49673037	     -5.80722687	     -0.36372073	     -0.58431103	      1.10407039	     -0.08154035	     20.82356622	    -12.62686813	     -3.15582727	    -68.71272766	    -11.91518161	      3.97049909	      0.00000000	     25.94759405	    -10.04281553	      1.87317935	     -5.58335521	    -38.89307095	     57.67112116	      0.00000000	      0.00000000	      0.00000000	      0.00000000
      0.02000000	     52.28217364	     -6.20827930	     -0.21854491	     -0.57486547	      1.09944385	     -0.08395178	     21.10872073	    -12.77316427	     -3.13977318	    -69.23550264	    -11.85806398	      4.09823519	      0.00000000	     25.01997475	    -10.65783486	      2.27666628	     -4.04119682	    -37.10465596	     46.95126562	      0.00000000	      0.00000000	      0.00000000	      0.00000000
      0.03000000	     52.13378132	     -6.51102944	     -0.21452144	     -0.56997836	      1.09725959	     -0.08542774	     21.34572561	    -12.86561963	     -3.12035949	    -69.60160365	    -11.80608433	      4.24353545	      0.00000000	     24.20370438	    -10.91286741	      2.75331138	     -2.78393753	    -35.60811134	     36.73034140	      0.00000000	      0.00000000	      0.00000000	      0.00000000
      0.04000000	     52.05444338	     -6.68020132	     -0.32981102	     -0.56874702	      1.09695772	     -0.08623643	     21.51644939	    -12.93160746	     -3.08420993	    -69.79033788	    -11.76396220	      4.40115820	      0.00000000	     23.54558786	    -10.81708216	      3.28407899	     -1.88490483	    -34.50303670	     27.55262533	      0.00000000	      0.00000000	      0.00000000	      0.00000000
      0.05000000	     52.03312888	     -6.70118002	     -0.50125688	     -0.56919351	      1.09741391	     -0.08684497	     21.60923123	    -13.01957426	     -3.01685601	    -69.81987680	    -11.73623330	      4.55986775	      0.00000000	     23.08074223	    -10.47173946	      3.82408494	     -1.36620725	    -33.85550418	     20.01015135	      0.00000000	      0.00000000	      0.00000000	      0.00000000
      0.06000000	     52.04769773	     -6.60293387	     -0.65054011	     -0.56959702	      1.09774708	     -0.08751563	     21.63148786	    -13.16804970	     -2.91929848	    -69.75474259	    -11.72460283	      4.70457804	      0.00000000	     22.81248746	    -10.03715136	      4.31151760	     -1.16549647	    -33.65144429	     14.50278936	      0.00000000	      0.00000000	      0.00000000	      0.00000000
      0.07000000	     52.07522191	     -6.44717266	     -0.72728370	     -0.56950848	      1.09779678	     -0.08813632	     21.61155158	    -13.37052808	     -2.81812956	    -69.67459621	    -11.72665766	      4.82086924	      0.00000000	     22.70890055	     -9.65152190	      4.68898016	     -1.16082963	    -33.79619128	     11.10393383	      0.00000000	      0.00000000	      0.00000000	      0.00000000
      0.08000000	     52.09922182	     -6.29586438	     -0.72711234	     -0.56932393	      1.09774516	     -0.08850459	     21.58453984	    -13.57685192	     -2.75222672	    -69.63490094	    -11.73659345	      4.89881674	      0.00000000	     22.71513534	     -9.38744766	      4.92339548	     -1.22321004	    -34.14969757	      9.55894251	      0.00000000	      0.00000000	      0.00000000	      0.00000000
      0.09000000	     52.11227840	     -6.18950600	     -0.67896966	     -0.56935626	      1.09769356	     -0.08858519	     21.57354177	    -13.72937903	     -2.74525566	    -69.64900203	    -11.74748005	      4.93492727	      0.00000000	     22.77397412	     -9.25890753	      5.01544201	     -1.26110158	    -34.57359726	      9.38413721	      0.00000000	      0.00000000	      0.00000000	      0.00000000
      0.10000000	     52.11458034	     -6.14508814	     -0.62051424	     -0.56948274	      1.09762804	     -0.08849233	     21.58190812	    -13.79772931	     -2.78982983	    -69.69654353	    -11.75394578	      4.93271943	      0.00000000	     22.84080014	     -9.24491256	      4.99563106	     -1.23884309	    -34.96674270	     10.01031083	      0.00000000	      0.00000000	      0.00000000	      0.00000000
      0.11000000	     52.11054603	     -6.16018886	     -0.57965200	     -0.56947862	      1.09754126	     -0.08835556	     21.59854373	    -13.78701844	     -2.85560334	    -69.74564938	    -11.75409742	      4.90223621	      0.00000000	     22.88934602	     -9.30771109	      4.91039391	     -1.16678271	    -35.27705657	     10.91742744	      0.00000000	      0.00000000	      0.00000000	      0.00000000
      0.12000000	     52.10635287	     -6.21616815	     -0.56754274	     -0.56934303	      1.09746904	     -0.08824517	     21.60890559	    -13.72468132	     -2.91036044	    -69.77288675	    -11.74971694	      4.85799453	      0.00000000	     22.91098883	     -9.40547977	      4.80575955	     -1.07575344	    -35.49340274	     11.72522416	      0.00000000	      0.00000000	      0.00000000	      0.00000000
      0.13000000	     52.10768070	     -6.28501945	     -0.58007999	     -0.56923091	      1.09744717	     -0.08817138	     21.60444341	    -13.64353707	     -2.93625706	    -69.77192794	    -11.74467435	      4.81530404	      0.00000000	     22.90888542	     -9.50266661	      4.71565887	     -0.99402420	    -35.62941028	     12.22760136	      0.00000000	      0.00000000	      0.00000000	      0.00000000
      0.14000000	     52.11715174	     -6.34067249	     -0.60416820	     -0.56923455	      1.09747940	     -0.08811704	     21.58595768	    -13.57112007	     -2.93319225	    -69.75109336	    -11.74258406	      4.78612204	      0.00000000	     22.89048366	     -9.57673112	      4.65766200	     -0.93607760	    -35.70865226	     12.37812231	      0.00000000	      0.00000000	      0.00000000	      0.00000000
      0.15000000	     52.13338924	     -6.36863278	     -0.62621091	     -0.56932035	      1.09753796	     -0.08808203	     21.56055183	    -13.52479954	     -2.91276563	    -69.72511086	    -11.74504029	      4.77617501	      0.00000000	     22.86326811	     -9.61864932	      4.63488497	     -0.90167279	    -35.75453453	     12.24453669	      0.00000000	      0.00000000	      0.00000000	      0.00000000
      0.16000000	     52.15310117	     -6.36971443	     -0.63937456	     -0.56941092	      1.09758297	     -0.08808784	     21.53599740	    -13.51009691	     -2.88964368	    -69.70670545	    -11.75118652	      4.78439675	      0.00000000	     22.83463646	     -9.62764188	      4.64100889	     -0.88023567	    -35.78475976	     11.95196804	      0.00000000	      0.00000000	      0.00000000	      0.00000000
      0.17000000	     52.17387624	     -6.35631734	     -0.64489834	     -0.56945322	      1.09759590	     -0.08813174	     21.51710514	    -13.52208732	     -2.87471180	    -69.70142490	    -11.75849975	      4.80455363	      0.00000000	     22.81195792	     -9.60678786	      4.66543801	     -0.85795590	    -35.80958580	     11.63053317	      0.00000000	      0.00000000	      0.00000000	      0.00000000
      0.18000000	     52.19316149	     -6.34104944	     -0.64606129	     -0.56943846	      1.09758206	     -0.08819468	     21.50536961	    -13.54966936	     -2.87182297	    -69.70692990	    -11.76413999	      4.82813630	      0.00000000	     22.79891488	     -9.56588672	      4.69688418	     -0.82626631	    -35.83299773	     11.37769966	      0.00000000	      0.00000000	      0.00000000	      0.00000000
      0.19000000	     52.20666591	     -6.32809821	     -0.64293699	     -0.56940222	      1.09755070	     -0.08827605	     21.49994824	    -13.58055414	     -2.87845375	    -69.71621725	    -11.76619309	      4.84738897	      0.00000000	     22.79289230	     -9.52272414	      4.72564696	     -0.78607999	    -35.85513142	     11.24111511	      0.00000000	      0.00000000	      0.00000000	      0.00000000
      0.20000000	     52.21179406	     -6.31694608	     -0.63498305	     -0.56938844	      1.09752227	     -0.08835409	     21.49831587	    -13.60497821	     -2.88901080	    -69.72256161	    -11.76433839	      4.85751762	      0.00000000	     22.78911277	     -9.49335283	      4.74537636	     -0.74371969	    -35.87446748	     11.22161057	      0.00000000	      0.00000000	      0.00000000	      0.00000000
      0.21000000	     52.21092324	     -6.30856870	     -0.62490660	     -0.56940480	      1.09751888	     -0.08838254	     21.49705964	    -13.61767037	     -2.89839664	    -69.72308827	    -11.75972740	      4.85754223	      0.00000000	     22.78548746	     -9.48318290	      4.75386012	     -0.70463848	    -35.88964153	     11.28885681	      0.00000000	      0.00000000	      0.00000000	      0.00000000
      0.22000000	     52.20953394	     -6.30509986	     -0.61728886	     -0.56942633	      1.09753433	     -0.08835782	     21.49344747	    -13.61815151	     -2.90395303	    -69.71913504	    -11.75422062	      4.84981011	      0.00000000	     22.78233448	     -9.48849210	      4.75241920	     -0.67122650	    -35.90079936	     11.40024034	      0.00000000	      0.00000000	      0.00000000	      0.00000000
      0.23000000	     52.21205415	     -6.30723569	     -0.61489172	     -0.56943783	      1.09754136	     -0.08832445	     21.48675716	    -13.60959653	     -2.90552020	    -69.71416263	    -11.74944279	      4.83862785	      0.00000000	     22.77966707	     -9.50221281	      4.74447057	     -0.64386613	    -35.90998322	     11.51654703	      0.00000000	      0.00000000	      0.00000000	      0.00000000
      0.24000000	     52.21954082	     -6.31343435	     -0.61703785	     -0.56944665	      1.09752711	     -0.08831498	     21.47811298	    -13.59684474	     -2.90449678	    -69.71138197	    -11.74614955	      4.82863911	      0.00000000	     22.77624603	     -9.51797135	      4.73400530	     -0.62212487	    -35.92040404	     11.61131384	      0.00000000	      0.00000000	      0.00000000	      0.00000000
      0.25000000	     52.23037253	     -6.32079756	     -0.62095291	     -0.56945585	      1.09750686	     -0.08832193	     21.46911382	    -13.58441786	     -2.90276892	    -69.71255204	    -11.74416840	      4.82347476	      0.00000000	     22.77107177	     -9.53164774	      4.72448972	     -0.60473688	    -35.93501103	     11.67332911	      0.00000000	      0.00000000	      0.00000000	      0.00000000
      0.26000000	     52.24195772	     -6.32656238	     -0.62402513	     -0.56945854	      1.09750087	     -0.08832325	     21.46079361	    -13.57527762	     -2.90188035	    -69.71782275	    -11.74281940	      4.82497710	      0.00000000	     22.76459491	     -9.54134878	      4.71834197	     -0.58947592	    -35.95512913	     11.70375606	      0.00000000	      0.00000000	      0.00000000	      0.00000000
      0.27000000	     52.25210233	     -6.32927052	     -0.62504526	     -0.56945345	      1.09751181	     -0.08831057	     21.45377542	    -13.57060417	     -2.90253826	    -69.72596104	    -11.74147395	      4.83307247	      0.00000000	     22.75831947	     -9.54671217	      4.71681418	     -0.57387583	    -35.97986033	     11.71043567	      0.00000000	      0.00000000	      0.00000000	      0.00000000
      0.28000000	     52.25975464	     -6.32897367	     -0.62414716	     -0.56944725	      1.09752762	     -0.08829384	     21.44881366	    -13.57032258	     -2.90454763	    -69.73487960	    -11.73993731	      4.84618333	      0.00000000	     22.75386373	     -9.54830640	      4.72000608	     -0.55633641	    -36.00646713	     11.70198426	      0.00000000	      0.00000000	      0.00000000	      0.00000000
      0.29000000	     52.26474542	     -6.32659430	     -0.62212462	     -0.56944639	      1.09753345	     -0.08829072	     21.44664385	    -13.57365076	     -2.90724811	    -69.74256411	    -11.73851429	      4.86196043	      0.00000000	     22.75242066	     -9.54711173	      4.72689193	     -0.53681011	    -36.03146081	     11.68366229	      0.00000000	      0.00000000	      0.00000000	      0.00000000
